<?xml version="1.0" encoding="UTF-8" standalone="no"?>
<svg
   xmlns:dc="http://purl.org/dc/elements/1.1/"
   xmlns:cc="http://creativecommons.org/ns#"
   xmlns:rdf="http://www.w3.org/1999/02/22-rdf-syntax-ns#"
   xmlns:svg="http://www.w3.org/2000/svg"
   xmlns="http://www.w3.org/2000/svg"
   xmlns:sodipodi="http://sodipodi.sourceforge.net/DTD/sodipodi-0.dtd"
   xmlns:inkscape="http://www.inkscape.org/namespaces/inkscape"
   width="168.0014mm"
   height="170.41403mm"
   viewBox="0 0 168.0014 170.41403"
   version="1.1"
   id="svg8"
   inkscape:version="1.0.2 (e86c8708, 2021-01-15)"
   sodipodi:docname="logo_vienote_AnjaLampret.svg">
  <defs
     id="defs2">
    <rect
       x="126.36456"
       y="293.64963"
       width="1.2868083"
       height="8.2355728"
       id="rect1808" />
    <inkscape:path-effect
       effect="bspline"
       id="path-effect1166"
       is_visible="true"
       lpeversion="1"
       weight="33.333333"
       steps="2"
       helper_size="0"
       apply_no_weight="true"
       apply_with_weight="true"
       only_selected="false" />
    <inkscape:path-effect
       effect="bspline"
       id="path-effect1041"
       is_visible="true"
       lpeversion="1"
       weight="33.333333"
       steps="2"
       helper_size="0"
       apply_no_weight="true"
       apply_with_weight="true"
       only_selected="false" />
    <inkscape:path-effect
       effect="bspline"
       id="path-effect1037"
       is_visible="true"
       lpeversion="1"
       weight="33.333333"
       steps="2"
       helper_size="0"
       apply_no_weight="true"
       apply_with_weight="true"
       only_selected="false" />
    <inkscape:path-effect
       effect="bspline"
       id="path-effect1029"
       is_visible="true"
       lpeversion="1"
       weight="33.333333"
       steps="2"
       helper_size="0"
       apply_no_weight="true"
       apply_with_weight="true"
       only_selected="false" />
    <inkscape:path-effect
       effect="bspline"
       id="path-effect1025"
       is_visible="true"
       lpeversion="1"
       weight="33.333333"
       steps="2"
       helper_size="0"
       apply_no_weight="true"
       apply_with_weight="true"
       only_selected="false" />
    <rect
       x="12.060969"
       y="248.03645"
       width="176.98161"
       height="12.585359"
       id="rect1321" />
    <filter
       inkscape:collect="always"
       style="color-interpolation-filters:sRGB"
       id="filter982"
       x="-0.25822857"
       width="1.5164571"
       y="-0.29511836"
       height="1.5902367">
      <feGaussianBlur
         inkscape:collect="always"
         stdDeviation="0.20789906"
         id="feGaussianBlur984" />
    </filter>
  </defs>
  <sodipodi:namedview
     id="base"
     pagecolor="#ffffff"
     bordercolor="#666666"
     borderopacity="1.0"
     inkscape:pageopacity="0.0"
     inkscape:pageshadow="2"
     inkscape:zoom="0.54833006"
     inkscape:cx="493.17281"
     inkscape:cy="325.25293"
     inkscape:document-units="mm"
     inkscape:current-layer="layer1"
     inkscape:document-rotation="0"
     showgrid="false"
     inkscape:window-width="1440"
     inkscape:window-height="769"
     inkscape:window-x="0"
     inkscape:window-y="25"
     inkscape:window-maximized="0" />
  <metadata
     id="metadata5">
    <rdf:RDF>
      <cc:Work
         rdf:about="">
        <dc:format>image/svg+xml</dc:format>
        <dc:type
           rdf:resource="http://purl.org/dc/dcmitype/StillImage" />
        <dc:title />
      </cc:Work>
    </rdf:RDF>
  </metadata>
  <g
     inkscape:label="Layer 1"
     inkscape:groupmode="layer"
     id="layer1"
     transform="translate(-21.913681,-51.830274)">
    <rect
       style="opacity:0;fill:#d3d3d3;stroke:#000000;stroke-width:0.564999;stroke-linecap:round;stroke-linejoin:round"
       id="rect886"
       width="167.4364"
       height="169.84903"
       x="22.19618"
       y="52.112774" />
    <circle
       style="fill:#ffffff;fill-opacity:1;stroke:none;stroke-width:0;stroke-linecap:round;stroke-linejoin:miter;stroke-miterlimit:4;stroke-dasharray:none;filter:url(#filter982)"
       id="circle1152"
       sodipodi:type="arc"
       sodipodi:cx="190.75211"
       sodipodi:cy="98.318924"
       sodipodi:rx="0.96611643"
       sodipodi:ry="0.84535193"
       sodipodi:start="6.2004913"
       sodipodi:end="6.187489"
       sodipodi:open="true"
       sodipodi:arc-type="arc"
       d="m 191.71492,98.249098 a 0.96611643,0.84535193 0 0 1 -0.87988,0.912058 0.96611643,0.84535193 0 0 1 -1.04521,-0.766931 0.96611643,0.84535193 0 0 1 0.87309,-0.917043 0.96611643,0.84535193 0 0 1 1.05088,0.760968"
       transform="matrix(-1,0,0,1,202.8391,20.193737)" />
    <a
       id="a1284"
       style="stroke:none;stroke-opacity:1" />
    <text
       xml:space="preserve"
       id="text1319"
       style="font-size:3.52777999999999992px;line-height:0.15;font-family:sans-serif;white-space:pre;shape-inside:url(#rect1321);" />
    <text
       xml:space="preserve"
       style="font-size:3.52777px;line-height:0.15;font-family:sans-serif;white-space:pre;inline-size:92.2617;stroke-width:0.264583"
       x="18.615843"
       y="251.18277"
       id="text1327"
       transform="matrix(1.1110925,0,0,1.2200043,85.311374,-15.717093)"><tspan
         x="18.615843"
         y="251.18277"><tspan
           style="stroke-width:0.264583">Racčunalnikby Anja Lampret is licensed under CC </tspan></tspan><tspan
         x="18.615843"
         y="251.71193"><tspan
           style="stroke-width:0.264583">BY 4.0 </tspan></tspan></text>
    <g
       id="g884"
       transform="matrix(1.3752023,0,0,1.3104316,-52.564206,-25.169746)">
      <path
         style="fill:#d3d3d3;fill-opacity:1;stroke:#000000;stroke-width:1.365;stroke-linecap:butt;stroke-linejoin:miter;stroke-miterlimit:4;stroke-dasharray:none;stroke-opacity:1"
         d="m 91.550293,76.384496 c 1.870304,-1.291001 6.733497,-1.068867 6.733497,-1.068867 l 58.41548,0.30745 c 0,0 5.9386,0.02234 7.55166,2.074844 1.21113,1.541074 0.17347,5.877545 0.17347,5.877545 l -10.48617,49.985072 c 0,0 -1.30876,3.2592 -2.72052,4.08698 -2.00711,1.17686 -6.95931,0.53793 -6.95931,0.53793 L 79.709883,128.11708 c 0,0 -4.17485,-0.36007 -5.121857,-1.91785 -0.841213,-1.38375 0.581905,-4.82319 0.581905,-4.82319 L 88.776904,81.229443 c 0,0 1.24194,-3.787846 2.773389,-4.844947 z"
         id="path1017"
         sodipodi:nodetypes="accaccaccacca" />
      <path
         style="fill:none;stroke:#000000;stroke-width:1.365;stroke-linecap:butt;stroke-linejoin:round;stroke-miterlimit:4;stroke-dasharray:none;stroke-opacity:1"
         d="M 81.527824,144.64399 139.51734,155.68006 113.43209,167.7194 63.669462,151.06498 Z"
         id="path1033" />
      <path
         style="fill:#d3d3d3;fill-opacity:1;stroke:#000000;stroke-width:1.386;stroke-linecap:butt;stroke-linejoin:miter;stroke-miterlimit:4;stroke-dasharray:none;stroke-opacity:1"
         d="m 157.77248,158.78633 c -2.01175,-0.53789 -5.09349,-1.19935 -8.64805,0.74331 -3.55456,1.94266 -7.57794,6.49011 -7.96134,8.80513 -0.38341,2.31503 2.86951,2.39771 6.89146,0.66114 4.02195,-1.73657 8.81575,-5.29184 10.74353,-7.27506 1.92779,-1.98322 0.98616,-2.39662 -1.0256,-2.93452 z"
         id="path1035"
         inkscape:path-effect="#path-effect1037"
         inkscape:original-d="m 158.83856,158.90905 c -3.07835,-0.65818 -6.16009,-1.31962 -9.24518,-1.98435 -4.01999,4.55071 -8.04337,9.09816 -12.07012,13.64233 3.25634,0.0859 6.50926,0.16862 9.75882,0.24804 4.79718,-3.55201 9.59098,-7.10727 14.3814,-10.66581 -0.93826,-0.41015 -1.8799,-0.82354 -2.82492,-1.24021 z" />
      <path
         style="fill:none;stroke:#000000;stroke-width:1.365;stroke-linecap:butt;stroke-linejoin:miter;stroke-miterlimit:4;stroke-dasharray:none;stroke-opacity:1"
         d="m 76.303848,118.69487 78.362842,10.29497 z"
         id="path1071" />
      <g
         id="g1172">
        <path
           id="path1077"
           style="fill:#ffc19e;fill-opacity:1;stroke:#000000;stroke-width:0.665;stroke-linecap:butt;stroke-linejoin:miter;stroke-miterlimit:4;stroke-dasharray:none;stroke-opacity:1"
           d="m 93.818942,79.428839 -10.045148,29.121711 -2.305414,6.68358 68.21136,8.83802 2.01699,-8.70971 7.9541,-34.347292 z" />
      </g>
      <path
         style="fill:#d3d3d3;fill-opacity:1;stroke:#000000;stroke-width:1.465;stroke-linecap:butt;stroke-linejoin:miter;stroke-miterlimit:4;stroke-dasharray:none;stroke-opacity:1"
         d="m 107.46096,132.4893 0.26912,4.86374 -4.8014,-0.34401 c 0,0 -5.316768,-0.48747 -5.577101,1.77992 -0.386355,3.36495 3.936331,3.63945 3.936331,3.63945 l 24.77184,3.78577 c 0,0 7.30643,0.97814 7.56945,-2.167 0.22789,-2.72496 -3.85403,-3.74166 -3.85403,-3.74166 l -6.2986,-0.98415 -0.21087,-4.39779 z"
         id="path1081"
         sodipodi:nodetypes="cccsccscccc" />
      <path
         style="fill:none;stroke:#000000;stroke-width:0.765;stroke-linecap:butt;stroke-linejoin:miter;stroke-miterlimit:4;stroke-dasharray:none;stroke-opacity:1"
         d="m 69.476003,152.59258 17.550876,-6.72935 5.638104,1.00031 -19.278682,7.72966 5.001546,1.45499 19.551491,-8.0934 5.092482,0.90937 -19.278681,9.09372 6.183728,1.90968 19.460553,-10.09403 12.36746,2.54624 -20.64274,10.91246 6.54748,2.09156 22.09773,-11.63996 8.63903,1.7278 -4.81967,3.00093 -55.926362,-12.36746 -2.637179,0.81844 54.380431,13.54964 -5.27435,2.18249 -13.54964,-4.36498 13.27682,4.27404 -5.18342,2.45531 -50.470127,-15.91401 4.546857,-1.27312 25.826159,7.54779 -8.275283,4.18311 3.819361,1.27312 7.093103,-3.54655 3.54655,0.90937 -6.91123,4.18311 z"
         id="path1086" />
      <path
         style="fill:#d3d3d3;fill-opacity:1;stroke:#000000;stroke-width:0.965;stroke-linecap:butt;stroke-linejoin:round;stroke-miterlimit:4;stroke-dasharray:none;stroke-opacity:1"
         d="m 63.669462,151.06498 -0.04773,2.31064 49.751598,16.48336 26.13215,-11.96049 0.0118,-2.21843 -26.08525,12.03934 -0.0588,2.13958 0.0588,-2.13958 z"
         id="path1088" />
      <circle
         style="opacity:0.97;fill:#ff904f;fill-opacity:1;stroke:#000000;stroke-width:0.565;stroke-linecap:round;stroke-linejoin:round;stroke-miterlimit:4;stroke-dasharray:none;stroke-opacity:1"
         id="path1180"
         sodipodi:type="arc"
         sodipodi:cx="108.91467"
         sodipodi:cy="102.45538"
         sodipodi:rx="8.5894861"
         sodipodi:ry="7.3525996"
         sodipodi:start="6.2004916"
         sodipodi:end="6.1874889"
         sodipodi:open="true"
         sodipodi:arc-type="arc"
         d="m 117.47481,101.84806 a 8.5894861,7.3525996 0 0 1 -7.82283,7.93278 8.5894861,7.3525996 0 0 1 -9.29265,-6.67051 8.5894861,7.3525996 0 0 1 7.76241,-7.97615 8.5894861,7.3525996 0 0 1 9.34312,6.61866" />
      <g
         id="g1191"
         transform="translate(-3.1411126e-5,-1.7844406e-4)">
        <path
           id="path1164"
           style="fill:#b6ccf0;fill-opacity:1;stroke:#000000;stroke-width:2.13543;stroke-linecap:butt;stroke-linejoin:miter;stroke-miterlimit:4;stroke-dasharray:none;stroke-opacity:1"
           d="m 469.35938,357.94531 c -1.79676,-0.0582 -3.89157,0.62111 -6.75,2.03516 -5.71687,2.8281 -14.48189,8.59637 -20.66602,13.13867 -6.18413,4.5423 -9.78508,7.8582 -14.89844,12.31055 -5.11335,4.45234 -11.73862,10.04149 -15.59961,13.21289 -3.86098,3.1714 -4.95845,3.92566 -5.51367,4.4414 -0.55522,0.51574 -0.56753,0.7811 -2.01953,0.58399 -1.452,-0.19711 -4.35582,-0.84987 -7.59961,-2.97852 -3.24379,-2.12864 -6.825,-5.74024 -9.73242,-9.58984 -2.90743,-3.8496 -5.13758,-7.93914 -8.02149,-9.13086 -2.88391,-1.19172 -6.41942,0.52779 -9.29101,2.27539 -2.87159,1.7476 -5.07511,3.52296 -7.97852,6.06836 -2.9034,2.5454 -6.50502,5.86119 -8.70703,7.63477 -2.20201,1.77357 -3.01183,2.00679 -3.56445,2.38671 -0.55263,0.37993 -0.83936,0.9001 -2.74805,2.01758 -1.90868,1.11749 -5.4438,2.83739 -7.49023,3.95313 -2.04643,1.11573 -2.60211,1.62689 -4.6211,2.20898 -2.01898,0.58209 -5.50902,1.2374 -8.85547,1.63281 -3.34644,0.39542 -5.83263,0.5293 -9.04509,0.66407 l -8.34553,24.7207 257.80664,33.40234 7.24182,-32.62584 c 0.53282,0.29446 0.2606,0.14401 0,0 -0.2606,-0.14401 -3.09825,-1.67772 -5.31018,-2.96791 -2.21193,-1.29019 -5.59473,-3.29639 -10.23047,-7.21679 -4.63573,-3.92041 -10.523,-9.7593 -16.16797,-11.86328 -5.64496,-2.10399 -11.04317,-0.46131 -14.29883,0.87109 -3.25565,1.3324 -4.36352,2.35449 -7.02929,2.51172 -2.66578,0.15722 -6.90006,-0.55045 -10.39453,-3.08789 -3.49448,-2.53744 -6.24608,-6.91567 -10.09571,-13.73633 -3.84962,-6.82067 -8.79666,-16.08586 -13.27734,-23.73242 -4.48068,-7.64657 -8.49544,-13.67347 -11.83203,-16.74805 -1.6683,-1.53729 -3.16809,-2.33434 -4.96484,-2.39258 z"
           transform="scale(0.26458333)"
           sodipodi:nodetypes="ssssssssssssssssssccccsssssssssss" />
      </g>
    </g>
    <text
       xml:space="preserve"
       id="text1806"
       style="font-size:3.52777999999999992px;line-height:0.15;font-family:sans-serif;white-space:pre;shape-inside:url(#rect1808);" />
  </g>
</svg>
